<?xml version="1.0"?>
<svg xmlns:rdf="http://www.w3.org/1999/02/22-rdf-syntax-ns#" xmlns="http://www.w3.org/2000/svg" xmlns:cc="http://creativecommons.org/ns#" xmlns:xlink="http://www.w3.org/1999/xlink" xmlns:dc="http://purl.org/dc/elements/1.1/" xmlns:svg="http://www.w3.org/2000/svg" id="svg10029" viewBox="0 0 183.58 194.53" version="1.0">
  <defs id="defs10031">
    <radialGradient id="radialGradient9946" gradientUnits="userSpaceOnUse" cy="387.91" cx="229.84" gradientTransform="matrix(1 0 0 .27462 0 281.39)" r="133.27">
      <stop id="stop2753" offset="0"/>
      <stop id="stop2755" stop-opacity="0" offset="1"/>
    </radialGradient>
    <linearGradient id="linearGradient9944" x1="519.21" gradientUnits="userSpaceOnUse" x2="519.21" y1="307.19" y2="269.34">
      <stop id="stop3357" stop-color="#fff" offset="0"/>
      <stop id="stop3363" stop-color="#e9f1c8" stop-opacity=".23427" offset=".66958"/>
      <stop id="stop3359" stop-color="#e0ebb4" stop-opacity=".020548" offset="1"/>
    </linearGradient>
    <linearGradient id="linearGradient9942" x1="539.94" gradientUnits="userSpaceOnUse" y1="293.18" gradientTransform="matrix(.82023 0 0 .87860 -93.538 10.467)" x2="539.86" y2="302.68">
      <stop id="stop4284" stop-color="#fff" offset="0"/>
      <stop id="stop4286" stop-color="#fff" stop-opacity="0" offset="1"/>
    </linearGradient>
    <linearGradient id="linearGradient9940" x1="535.02" gradientUnits="userSpaceOnUse" y1="287.88" gradientTransform="matrix(.80268 0 0 .85980 -84.033 15.866)" x2="535.02" y2="299.07">
      <stop id="stop3369" stop-color="#fff" offset="0"/>
      <stop id="stop3371" stop-color="#fff" stop-opacity="0" offset="1"/>
    </linearGradient>
    <radialGradient id="radialGradient9938" gradientUnits="userSpaceOnUse" cy="299.62" cx="534.24" gradientTransform="matrix(1 0 0 1.0084 0 -2.5178)" r="13.37">
      <stop id="stop3337" offset="0"/>
      <stop id="stop3339" offset=".70885"/>
      <stop id="stop3341" stop-color="#4c5a0b" stop-opacity="0" offset="1"/>
    </radialGradient>
    <radialGradient id="radialGradient9934" gradientUnits="userSpaceOnUse" cy="299.62" cx="534.24" gradientTransform="matrix(1 0 0 1.0084 0 -2.5178)" r="13.37">
      <stop id="stop2830" stop-color="#59f" offset="0"/>
      <stop id="stop2833" stop-color="#003380" offset=".93834"/>
      <stop id="stop2835" stop-color="#acf" stop-opacity="0" offset="1"/>
    </radialGradient>
    <linearGradient id="linearGradient9932" y2="219.45" gradientUnits="userSpaceOnUse" y1="219.45" x2="152.41" x1="115.33">
      <stop id="stop2797" stop-color="#242424" offset="0"/>
      <stop id="stop2799" stop-color="#242424" stop-opacity="0" offset="1"/>
    </linearGradient>
    <linearGradient id="linearGradient9930" y2="241.04" gradientUnits="userSpaceOnUse" y1="241.67" x2="140.59" x1="179.92">
      <stop id="stop2781" stop-color="#242424" offset="0"/>
      <stop id="stop2783" stop-color="#242424" stop-opacity="0" offset="1"/>
    </linearGradient>
    <linearGradient id="linearGradient9928" y2="219.45" gradientUnits="userSpaceOnUse" y1="219.45" x2="189.61" x1="115.2">
      <stop id="stop2805" stop-color="#242424" offset="0"/>
      <stop id="stop2807" stop-color="#242424" stop-opacity="0" offset="1"/>
    </linearGradient>
    <linearGradient id="linearGradient9926" y2="219.45" gradientUnits="userSpaceOnUse" y1="219.45" x2="163.44" x1="115.35">
      <stop id="stop2789" stop-color="#242424" offset="0"/>
      <stop id="stop2791" stop-color="#242424" stop-opacity="0" offset="1"/>
    </linearGradient>
    <radialGradient id="radialGradient9924" gradientUnits="userSpaceOnUse" cy="323.31" cx="115.42" gradientTransform="matrix(-1.7465 .20549 -.17968 -1.461 444.05 697.22)" r="88.53">
      <stop id="stop2733" stop-color="#fff" offset="0"/>
      <stop id="stop2735" offset="1"/>
    </radialGradient>
    <radialGradient id="radialGradient9922" gradientUnits="userSpaceOnUse" cy="323.31" cx="115.42" gradientTransform="matrix(-1.7465 .20549 -.17968 -1.461 444.05 697.22)" r="88.53">
      <stop id="stop2741" stop-color="#fff" offset="0"/>
      <stop id="stop2832" stop-color="#fff" offset=".34251"/>
      <stop id="stop2747" stop-color="#cfcfcf" stop-opacity="0" offset=".60125"/>
      <stop id="stop2743" offset="1"/>
    </radialGradient>
  </defs>
  <g id="layer1" transform="translate(-228.21 -169.38)">
    <g id="g9904" transform="matrix(1.8815 0 0 1.8815 -304.55 -1198.2)">
      <g id="g9820" transform="matrix(1.8086 0 0 1.8086 -285.3 273.56)">
        <path id="path9822" transform="matrix(.23861 0 0 .24412 305.66 200.83)" fill="#fff" d="m235.53 290.93a88.453 86.91 0 1 1 -176.9 0 88.453 86.91 0 1 1 176.9 0z"/>
        <path id="path9824" d="m235.53 290.93a88.453 86.91 0 1 1 -176.9 0 88.453 86.91 0 1 1 176.9 0z" stroke-dashoffset=".9568" transform="matrix(.23861 0 0 .24412 305.43 201.12)" stroke="url(#radialGradient9924)" stroke-miterlimit="2.9" stroke-width=".24352" fill="url(#radialGradient9922)"/>
        <path id="path9826" opacity=".75097" d="m189.35 219.45a36.947 115.46 0 1 1 -73.89 0 36.947 115.46 0 1 1 73.89 0z" stroke-dashoffset=".9568" transform="matrix(-.15157 0 0 .18303 363.18 231.91)" stroke="url(#linearGradient9926)" stroke-miterlimit="2.9" stroke-width=".35286" fill="none"/>
        <path id="path9828" opacity=".64591" d="m189.35 219.45a36.947 115.46 0 1 1 -73.89 0 36.947 115.46 0 1 1 73.89 0z" stroke-dashoffset=".9568" transform="matrix(-.065291 0 0 .080678 332 254.42)" stroke="url(#linearGradient9928)" stroke-miterlimit="2.9" stroke-width=".80978" fill="none"/>
        <path id="path9830" opacity=".46693" d="m189.35 219.45a36.947 115.46 0 1 1 -73.89 0 36.947 115.46 0 1 1 73.89 0z" stroke-dashoffset=".9568" transform="matrix(.12592 0 0 .15517 310.76 237.92)" stroke="url(#linearGradient9930)" stroke-miterlimit="2.9" stroke-width=".42046" fill="none"/>
        <path id="path9832" opacity=".68093" d="m189.35 219.45a36.947 115.46 0 1 1 -73.89 0 36.947 115.46 0 1 1 73.89 0z" stroke-dashoffset=".9568" transform="matrix(-.12592 0 0 .15517 370.28 238.07)" stroke="url(#linearGradient9932)" stroke-miterlimit="2.9" stroke-width=".42046" fill="none"/>
        <path id="path9834" fill-rule="evenodd" fill="url(#radialGradient9934)" transform="matrix(.75947 0 0 .79143 -60.26 36.154)" d="m547.61 299.62a13.37 13.482 0 1 1 -26.74 0 13.37 13.482 0 1 1 26.74 0z"/>
        <path id="path9836" d="m537.13 300.76l-11.75-11.01 8.65 13.59-9.89-12.72 6.41 14.78-7.77-14.11 4.02 15.6-5.47-15.15 1.53 16.03-3.03-15.82-1 16.08-0.52-16.1-3.5 15.72 2.01-15.98-5.92 14.98 4.48-15.47-8.18 13.87 6.84-14.58-10.25 12.42 9.04-13.33-12.07 10.67 11.01-11.76-13.59 8.65 12.72-9.89-14.78 6.41 14.11-7.77-15.6 4.02 15.15-5.47-16.03 1.53 15.82-3.03-16.08-1 16.1-0.51-15.72-3.5 15.98 2-14.98-5.92 15.47 4.49-13.87-8.19 14.58 6.84-12.42-10.25 13.33 9.04-10.66-12.07 11.75 11.01-8.65-13.59 9.89 12.72-6.41-14.78 7.77 14.11-4.02-15.6 5.47 15.16-1.53-16.04 3.03 15.82 1-16.08 0.52 16.1 3.5-15.72-2.01 15.98 5.92-14.98-4.48 15.47 8.18-13.87-6.84 14.58 10.25-12.42-9.04 13.33 12.07-10.66-11.01 11.75 13.59-8.64-12.72 9.88 14.78-6.41-14.11 7.77 15.6-4.02-15.15 5.47 16.03-1.53-15.82 3.03 16.08 1-16.1 0.52 15.72 3.5-15.98-2.01 14.98 5.92-15.47-4.48 13.87 8.18-14.58-6.84 12.42 10.25-13.33-9.04 10.66 12.07z" transform="matrix(.37620 0 0 .39744 150.31 160.46)" fill="url(#linearGradient9944)" fill-rule="evenodd"/>
        <path id="path9838" fill-rule="evenodd" fill="url(#radialGradient9938)" transform="matrix(.26972 0 0 .28650 201.19 187.23)" d="m547.61 299.62a13.37 13.482 0 1 1 -26.74 0 13.37 13.482 0 1 1 26.74 0z"/>
        <path id="path9840" fill-rule="evenodd" fill="url(#linearGradient9940)" d="m345.62 273.01c-3.15-0.14-4.16-2.83-8.99-1.98 0.09-1.26 1.25-3.87 2-3.54-0.54-0.62 1.06-1.95 1.73-2.44 1.68-1.25 3.9-1.65 5.31-1.67 1.48-0.02 5.09 0.92 4.73 2.23 0.81-1.04 2.49 1.53 3.01 2.35s0.97 1.82 0.72 1.96c-4.85 0.34-6.07 1.37-8.51 3.09z"/>
        <path id="path9842" opacity=".92123" fill-rule="evenodd" fill="url(#linearGradient9942)" d="m345.67 271.84c1.75-0.31 2.64-2.26 4-3 0.66 0.4 1.24 1.29 1.53 2.14 0.29 0.86 0.23 2.02 0.2 3-0.04 0.97-0.09 2.42-0.4 2.85s-1.14 0.21-1.47-0.29c-0.32-0.49-0.15-1.99-0.46-2.71-0.31-0.71-0.83-1.23-1.4-1.56-0.57-0.34-1.7-0.16-2-0.43z"/>
        <path id="path9844" opacity=".46233" d="m537.13 300.76l-11.75-11.01 8.65 13.59-9.89-12.72 6.41 14.78-7.77-14.11 4.02 15.6-5.47-15.15 1.53 16.03-3.03-15.82-1 16.08-0.52-16.1-3.5 15.72 2.01-15.98-5.92 14.98 4.48-15.47-8.18 13.87 6.84-14.58-10.25 12.42 9.04-13.33-12.07 10.67 11.01-11.76-13.59 8.65 12.72-9.89-14.78 6.41 14.11-7.77-15.6 4.02 15.15-5.47-16.03 1.53 15.82-3.03-16.08-1 16.1-0.51-15.72-3.5 15.98 2-14.98-5.92 15.47 4.49-13.87-8.19 14.58 6.84-12.42-10.25 13.33 9.04-10.66-12.07 11.75 11.01-8.65-13.59 9.89 12.72-6.41-14.78 7.77 14.11-4.02-15.6 5.47 15.16-1.53-16.04 3.03 15.82 1-16.08 0.52 16.1 3.5-15.72-2.01 15.98 5.92-14.98-4.48 15.47 8.18-13.87-6.84 14.58 10.25-12.42-9.04 13.33 12.07-10.66-11.01 11.75 13.59-8.64-12.72 9.88 14.78-6.41-14.11 7.77 15.6-4.02-15.15 5.47 16.03-1.53-15.82 3.03 16.08 1-16.1 0.52 15.72 3.5-15.98-2.01 14.98 5.92-15.47-4.48 13.87 8.18-14.58-6.84 12.42 10.25-13.33-9.04 10.66 12.07z" fill-rule="evenodd" transform="matrix(.37562 .022434 -.020656 .39683 156.39 149.04)" fill="url(#linearGradient9944)"/>
        <path id="path9846" opacity=".59533" d="m324.41 272.85c3.68 0.2 6.74 0.33 10.11 0.28" stroke="#000" stroke-width=".058772" fill="none"/>
        <path id="path9848" opacity=".5214" d="m355.73 272.9c3.17-0.2 5.51-0.26 5.92-0.65" stroke="#000" stroke-width=".058772" fill="none"/>
      </g>
      <path id="path9850" opacity=".35" transform="matrix(.36633 0 0 .36633 247.74 674.77)" fill="url(#radialGradient9946)" d="m363.01 387.91a133.17 36.498 0 1 1 -266.34 0 133.17 36.498 0 1 1 266.34 0z"/>
    </g>
  </g>
  <metadata>
    <rdf:RDF>
      <cc:Work>
        <dc:format>image/svg+xml</dc:format>
        <dc:type rdf:resource="http://purl.org/dc/dcmitype/StillImage"/>
        <cc:license rdf:resource="http://creativecommons.org/licenses/publicdomain/"/>
        <dc:publisher>
          <cc:Agent rdf:about="http://openclipart.org/">
            <dc:title>Openclipart</dc:title>
          </cc:Agent>
        </dc:publisher>
        <dc:title>Cyber eye</dc:title>
        <dc:date>2007-09-29T15:31:30</dc:date>
        <dc:description>clip art, clipart, icon, icon, image, media, public domain, svg, </dc:description>
        <dc:source>http://openclipart.org/detail/6220/cyber-eye-by-kobo</dc:source>
        <dc:creator>
          <cc:Agent>
            <dc:title>kobo</dc:title>
          </cc:Agent>
        </dc:creator>
        <dc:subject>
          <rdf:Bag>
            <rdf:li>clip art</rdf:li>
            <rdf:li>clipart</rdf:li>
            <rdf:li>icon</rdf:li>
            <rdf:li>image</rdf:li>
            <rdf:li>media</rdf:li>
            <rdf:li>public domain</rdf:li>
            <rdf:li>svg</rdf:li>
          </rdf:Bag>
        </dc:subject>
      </cc:Work>
      <cc:License rdf:about="http://creativecommons.org/licenses/publicdomain/">
        <cc:permits rdf:resource="http://creativecommons.org/ns#Reproduction"/>
        <cc:permits rdf:resource="http://creativecommons.org/ns#Distribution"/>
        <cc:permits rdf:resource="http://creativecommons.org/ns#DerivativeWorks"/>
      </cc:License>
    </rdf:RDF>
  </metadata>
</svg>
